<svg xmlns="http://www.w3.org/2000/svg" width="446.053" height="225" viewBox="0 0 446.0526315789474 225"><defs><clipPath id="a"><path d="M21.053 25h400v200h-400z"/></clipPath></defs><path fill="none" stroke="#000" d="M21.053 225V25M42.105 225V25M63.158 225V25M84.21 225V25M105.263 225V25M126.316 225V25M147.368 225V25M168.421 225V25M189.474 225V25M210.526 225V25M231.579 225V25M252.632 225V25M273.684 225V25M294.737 225V25M315.789 225V25M336.842 225V25M357.895 225V25M378.947 225V25M400 225V25M421.053 225V25M21.053 225h400M21.053 186.538h400M21.053 148.077h400M21.053 109.615h400M21.053 71.154h400M21.053 32.692h400" stroke-width="2" opacity=".1"/><path fill="none" stroke="#000" d="M21.053 186.538" stroke-width="2"/><path fill="none" stroke="#000" d="M415.503 192.138c.35-2.1 4.2-5.25 5.25-5.6-1.05-.35-4.9-3.5-5.25-5.6" stroke-width="2" stroke-linejoin="round" stroke-linecap="round"/><path fill="none" stroke="#000" d="M21.053 186.538h398.95" stroke-width="2"/><path fill="none" stroke="#000" d="M42.105 191.538v-10M63.158 191.538v-10M84.21 191.538v-10M105.263 191.538v-10M126.316 191.538v-10M147.368 191.538v-10M168.421 191.538v-10M189.474 191.538v-10M210.526 191.538v-10M231.579 191.538v-10M252.632 191.538v-10M273.684 191.538v-10M294.737 191.538v-10M315.789 191.538v-10M336.842 191.538v-10M357.895 191.538v-10M378.947 191.538v-10M400 191.538v-10"/><path fill="none" stroke="#11accd" d="M21.053 186.538l.5-.266.5-.273.5-.279.5-.284.5-.291.5-.296.5-.301.5-.307.5-.312.5-.317.5-.322.5-.327.5-.333.5-.336.5-.342.5-.346.5-.351.5-.355.5-.36.5-.363.5-.369.5-.372.5-.376.5-.381.5-.384.5-.389.5-.392.5-.396.5-.4.5-.403.5-.407.5-.411.5-.415.5-.417.5-.422.5-.424.5-.429.5-.431.5-.435.5-.438.5-.441.5-.444.5-.448.5-.45.5-.454.5-.457.5-.459.5-.463.5-.465.5-.469.5-.471.5-.474.5-.477.5-.48.5-.482.5-.486.5-.487.5-.491.5-.493.5-.496.5-.498.5-.501.5-.504.5-.505.5-.509.5-.511.5-.513.5-.516.5-.518.5-.52.5-.523.5-.525.5-.528.5-.53.5-.532.5-.534.5-.537.5-.538.5-.541.5-.543.5-.546.5-.547.5-.55.5-.551.5-.554.5-.556.5-.558.5-.56.5-.561.5-.564.5-.566.5-.568.5-.57.5-.572.5-.574.5-.575.5-.578.5-.579.5-.582.5-.583.5-.585.5-.587.5-.589.5-.591.5-.592.5-.594.5-.596.5-.598.5-.599.5-.601.5-.603.5-.605.5-.607.5-.608.5-.609.5-.612.5-.613.5-.615.5-.616.5-.618.5-.62.5-.621.5-.623.5-.625.5-.626.5-.627.5-.63.5-.631.5-.632.5-.634.5-.635.5-.637.5-.639.5-.64.5-.641.5-.643.5-.644.5-.646.5-.648.5-.648.5-.651.5-.651.5-.654.5-.654.5-.656.5-.657.5-.659.5-.66.5-.662.5-.663.5-.664.5-.666.5-.667.5-.668.5-.67.5-.671.5-.673.5-.673.5-.675.5-.677.5-.677.5-.679.5-.681.5-.681.5-.683.5-.684.5-.685.5-.687.5-.688.5-.689.5-.69.5-.692.5-.693.5-.694.5-.695.5-.697.5-.697.5-.7.5-.7.5-.7.5-.703.5-.704.5-.705.5-.705.5-.708.5-.708.5-.71.5-.71.5-.712.5-.713.5-.714.5-.715.5-.716.5-.718.5-.718.5-.72.5-.72.5-.723.5-.723.5-.724.5-.725.5-.726.5-.727.5-.729.5-.73.5-.73.5-.731.5-.733.5-.734.5-.734.5-.736.5-.737.5-.738.5-.739.5-.74.5-.74.5-.743.5-.743.5-.744.5-.745.5-.746.5-.747.5-.748.5-.749.5-.75.5-.75.5-.753.5-.753.5-.754.5-.755.5-.755.5-.757.5-.758.5-.759.5-.76.5-.76.5-.762.5-.762.5-.764.5-.764.5-.766.5-.766.5-.767.5-.768.5-.77.5-.77.5-.77.5-.772.5-.773.5-.774.5-.774.5-.776.5-.776.5-.777.5-.778.5-.78.5-.78.5-.78.5-.782.5-.782.5-.784.5-.784.5-.785.5-.786.5-.787.5-.788.5-.788.5-.79.5-.79.5-.79.5-.793.5-.793.5-.793.5-.795.5-.795.5-.796.5-.797.5-.798.5-.799.5-.8.5-.8.5-.8.5-.802.5-.803.5-.804.5-.804.5-.805.5-.806.5-.807.5-.807.5-.808.5-.81.5-.81.5-.81.5-.812.5-.812.5-.813.5-.814.5-.814.5-.816.5-.816.5-.817.5-.817.5-.819.5-.819.5-.82.5-.82.5-.822.5-.822.5-.823.5-.824.5-.824.5-.825.5-.826.5-.827.5-.827.5-.829.5-.828.5-.83.5-.83.5-.831.5-.832.5-.833.5-.833.5-.834.5-.835.5-.835.5-.836.5-.837.5-.838.5-.838.5-.839.5-.84.5-.84.5-.84.5-.843.5-.842.5-.843.5-.844.5-.845.5-.845.5-.846.5-.846.5-.848.5-.847.5-.85.5-.848.5-.85.5-.851.5-.851.5-.852.5-.853.5-.853.5-.855.5-.854.5-.856.5-.856.5-.856.5-.858.5-.858.5-.858.5-.86.5-.86.5-.86.5-.861.5-.862.5-.863.5-.863.5-.864.5-.864.5-.865.5-.866.5-.867.5-.867.5-.867.5-.869.5-.869.5-.87.5-.87.5-.87.5-.871.5-.873.5-.872.5-.873.5-.874.5-.875.5-.875.5-.876.5-.876.5-.877.5-.878.5-.878.5-.879.5-.88.5-.88.5-.88.5-.881.5-.882.5-.882.5-.883.5-.884.5-.884.5-.885.5-.885.5-.886.5-.887.5-.887.5-.888.5-.888.5-.89.5-.889.5-.89.5-.89.5-.892.5-.892.5-.892.5-.893.5-.893.5-.895.5-.894.5-.896.5-.895.5-.897.5-.897.5-.897.5-.898.5-.899.5-.899.5-.9.5-.9.5-.901.5-.902.5-.902.5-.902.5-.903.5-.904.5-.904.5-.905.5-.905.5-.906.5-.907.5-.907.5-.907.5-.908.5-.909.5-.909.5-.91.5-.91.5-.911.5-.911.5-.912.5-.912.5-.913.5-.914.5-.913.5-.915.5-.915.5-.916.5-.916.5-.916.5-.917.5-.918.5-.918.5-.919.5-.919.5-.92.5-.92.5-.921.5-.921.5-.922.5-.922.5-.923.5-.923.5-.924.5-.925.5-.924.5-.926.5-.926.5-.926.5-.927.5-.927.5-.928.5-.929.5-.929.5-.929.5-.93.5-.93.5-.931.5-.932.5-.932.5-.932.5-.933.5-.933.5-.934.5-.935.5-.935.5-.935.5-.936.5-.936.5-.937.5-.937.5-.938.5-.938.5-.939.5-.939.5-.94.5-.94.5-.941.5-.941.5-.942.5-.942.5-.942.5-.943.5-.944.5-.944.5-.945.5-.945.5-.945.5-.946.5-.946.5-.947.5-.947.5-.948.5-.948.5-.949.5-.949.5-.95.5-.95.5-.951.5-.951.5-.951.5-.952.5-.953.5-.952.5-.954.5-.954.5-.954.5-.954.5-.956.5-.955.5-.956.5-.957.5-.957.5-.957.5-.958.5-.958.5-.959.5-.959.5-.96.5-.96.5-.961.5-.961.5-.961.5-.962.5-.962.5-.963.5-.963.5-.964.5-.964.5-.964.5-.965.5-.966.5-.965.5-.967.5-.966.5-.968.5-.967.5-.968.5-.969.5-.968.5-.97.5-.969.5-.971.5-.97.5-.971.5-.972.5-.971.5-.973.5-.972.5-.974.5-.973.5-.974.5-.974.5-.975.5-.976.5-.975.5-.976.5-.977.5-.977.5-.977.5-.978.5-.978.5-.979.5-.979.5-.979.5-.98.5-.98.5-.981.5-.981.5-.981.5-.982.5-.982.5-.983.5-.983.5-.984.5-.984.5-.984.5-.985.5-.985.5-.986.5-.985.5-.987.5-.987.5-.987.5-.987.5-.988.5-.989.5-.988.5-.99.5-.989.5-.99.5-.991.5-.99.5-.991.5-.992.5-.992.5-.992.5-.993.5-.993.5-.994.5-.994.5-.994.5-.995.5-.995.5-.995.5-.996.5-.996.5-.997.5-.997.5-.997.5-.998.5-.998.5-.999.5-.999.5-.999.5-1 .5-1 .5-1.001.5-1.001.5-1.001.5-1.001.5-1.002.5-1.003.5-1.003.5-1.003.5-1.003.5-1.004.5-1.005.5-1.004.5-1.005.5-1.006.5-1.005.5-1.007.5-1.006.5-1.007.5-1.007.5-1.008.5-1.008.5-1.008.5-1.009.5-1.009.5-1.01.5-1.01.5-1.01.5-1.011.5-1.011.5-1.011.5-1.012.5-1.012.5-1.012.5-1.013.5-1.013.5-1.014.5-1.014.5-1.014.5-1.015.5-1.015.5-1.015.5-1.016.5-1.016.5-1.016.5-1.017.5-1.017.5-1.018.5-1.017.5-1.019.5-1.018.5-1.019.5-1.02.5-1.019.5-1.02.5-1.021.5-1.02.5-1.021.5-1.022.5-1.022.5-1.022.5-1.022.5-1.023.5-1.023.5-1.024.5-1.024.5-1.024.5-1.024.5-1.025.5-1.026.5-1.025.5-1.026.5-1.027.5-1.026.5-1.027.5-1.028.5-1.027.5-1.028.5-1.029.5-1.029.5-1.029.5-1.029.5-1.03.5-1.03.5-1.03.5-1.031.5-1.031.5-1.032.5-1.032.5-1.032.5-1.032.5-1.033.5-1.033.5-1.034.5-1.034.5-1.034.5-1.034.5-1.035.5-1.035.5-1.036.5-1.036.5-1.036.5-1.036.5-1.037.5-1.037.5-1.038.5-1.038.5-1.038.5-1.038.5-1.039.5-1.039.5-1.04.5-1.04.5-1.04.5-1.04.5-1.041.5-1.041.5-1.042.5-1.042.5-1.042.5-1.042.5-1.043.5-1.043.5-1.044.5-1.043.5-1.044.5-1.045.5-1.044.5-1.046.5-1.045.5-1.046.5-1.046.5-1.046.5-1.047.5-1.047.5-1.047.5-1.047.5-1.048.5-1.049.5-1.048.5-1.049.5-1.049.5-1.05.5-1.05.5-1.05.5-1.05.5-1.051.5-1.051.5-1.052.5-1.051.5-1.053.5-1.052.5-1.053.5-1.053" stroke-width="3" clip-path="url(#a)"/><path fill="none" stroke="#e84d39" d="M21.053 178.846l.5-.37.5-.378.5-.387.5-.396.5-.404.5-.413.5-.422.5-.431.5-.439.5-.448.5-.456.5-.465.5-.474.5-.483.5-.491.5-.5.5-.508.5-.518.5-.526.5-.534.5-.543.5-.552.5-.561.5-.569.5-.578.5-.587.5-.595.5-.604.5-.613.5-.621.5-.63.5-.639.5-.648.5-.656.5-.665.5-.673.5-.682.5-.691.5-.699.5-.709.5-.716.5-.726.5-.734.5-.743.5-.752.5-.76.5-.769.5-.777.5-.786.5-.795.5-.804.5-.812.5-.821.5-.83.5-.838.5-.847.5-.856.5-.864.5-.873.5-.882.5-.891.5-.899.5-.907.5-.917.5-.925.5-.934.5-.942.5-.951.5-.96.5-.969.5-.977.5-.986.5-.994.5-1.003.5-1.012.5-1.021.5-1.029.5-1.038.5-1.047.5-1.055.5-1.064.5-1.072.5-1.082.5-1.09.5-1.098.5-1.108.5-1.116.5-1.124.5-1.134.5-1.142.5-1.151.5-1.159.5-1.168.5-1.177.5-1.185.5-1.194.5-1.203.5-1.212.5-1.22.5-1.229.5-1.237.5-1.246.5-1.255.5-1.264.5-1.272.5-1.281.5-1.29.5-1.298.5-1.307.5-1.315.5-1.325.5-1.333.5-1.341.5-1.35.5-1.36.5-1.367.5-1.377.5-1.385.5-1.393.5-1.403.5-1.41.5-1.42.5-1.429.5-1.437.5-1.446.5-1.454.5-1.464.5-1.471.5-1.48.5-1.49.5-1.498.5-1.506.5-1.516.5-1.523.5-1.533.5-1.541.5-1.55.5-1.559.5-1.567.5-1.576.5-1.585.5-1.593.5-1.602.5-1.61.5-1.62.5-1.628.5-1.637.5-1.645.5-1.654.5-1.663.5-1.671.5-1.68.5-1.689.5-1.697.5-1.707.5-1.714.5-1.724.5-1.732.5-1.74.5-1.75.5-1.758.5-1.767.5-1.776.5-1.784.5-1.793.5-1.802.5-1.81.5-1.819.5-1.827.5-1.837.5-1.845.5-1.853.5-1.863.5-1.87.5-1.88.5-1.889.5-1.897.5-1.905.5-1.915.5-1.923.5-1.932.5-1.94.5-1.95.5-1.957.5-1.966.5-1.975.5-1.984.5-1.993.5-2 .5-2.01.5-2.02.5-2.026.5-2.036.5-2.045.5-2.053.5-2.062.5-2.07.5-2.08.5-2.088.5-2.097.5-2.105.5-2.114.5-2.122.5-2.132.5-2.14.5-2.148.5-2.158.5-2.166.5-2.175.5-2.183.5-2.192.5-2.2.5-2.21.5-2.218.5-2.227.5-2.236.5-2.244.5-2.253.5-2.261.5-2.27.5-2.279.5-2.288.5-2.296.5-2.305.5-2.313.5-2.323.5-2.331.5-2.339.5-2.348.5-2.357.5-2.366.5-2.374.5-2.383.5-2.392.5-2.4.5-2.409.5-2.418.5-2.426.5-2.435.5-2.444.5-2.453.5-2.461.5-2.47.5-2.478.5-2.487.5-2.496.5-2.504.5-2.514.5-2.521.5-2.531.5-2.539.5-2.548.5-2.557.5-2.565.5-2.574.5-2.582.5-2.591.5-2.6.5-2.609.5-2.617.5-2.626.5-2.635.5-2.643.5-2.652.5-2.661.5-2.669.5-2.678.5-2.687.5-2.696.5-2.704.5-2.712.5-2.722.5-2.73.5-2.739.5-2.747.5-2.756.5-2.765.5-2.774.5-2.782.5-2.791.5-2.799.5-2.808.5-2.817.5-2.826.5-2.834.5-2.843.5-2.852.5-2.86.5-2.869.5-2.877.5-2.887.5-2.895.5-2.903.5-2.913.5-2.921.5-2.929.5-2.939.5-2.947.5-2.956.5-2.964.5-2.973.5-2.982.5-2.99.5-2.999.5-3.008.5-3.017.5-3.025.5-3.034.5-3.042.5-3.051.5-3.06.5-3.069.5-3.077.5-3.086.5-3.095.5-3.103.5-3.112.5-3.12.5-3.13.5-3.138.5-3.146.5-3.156.5-3.164.5-3.172.5-3.182.5-3.19.5-3.198.5-3.208.5-3.216.5-3.225.5-3.233.5-3.242.5-3.251.5-3.259.5-3.268.5-3.277.5-3.286.5-3.294.5-3.303.5-3.311.5-3.321.5-3.328.5-3.338.5-3.346.5-3.355.5-3.364.5-3.372.5-3.381.5-3.39.5-3.398.5-3.407.5-3.416.5-3.424.5-3.433.5-3.442.5-3.45.5-3.459.5-3.468.5-3.476.5-3.485.5-3.494.5-3.502.5-3.512.5-3.519.5-3.529.5-3.537.5-3.546.5-3.554.5-3.563.5-3.572.5-3.581.5-3.589.5-3.598.5-3.607.5-3.615.5-3.624.5-3.632.5-3.642.5-3.65.5-3.658.5-3.668.5-3.676.5-3.684.5-3.694.5-3.702.5-3.71.5-3.72.5-3.728.5-3.737.5-3.745.5-3.754.5-3.763.5-3.771.5-3.78.5-3.789.5-3.798.5-3.806.5-3.815.5-3.823.5-3.832.5-3.841.5-3.85.5-3.858.5-3.867.5-3.876.5-3.884.5-3.893.5-3.901.5-3.911.5-3.919.5-3.927.5-3.937.5-3.945.5-3.953.5-3.963.5-3.971.5-3.98.5-3.988.5-3.997.5-4.006.5-4.014.5-4.023.5-4.032.5-4.041.5-4.049.5-4.058.5-4.066.5-4.075.5-4.084.5-4.093.5-4.101.5-4.11.5-4.118.5-4.128.5-4.136.5-4.144.5-4.153.5-4.162.5-4.171.5-4.179.5-4.188.5-4.197.5-4.205.5-4.214.5-4.223.5-4.231.5-4.24.5-4.249.5-4.258.5-4.266.5-4.275.5-4.283.5-4.292.5-4.301.5-4.309.5-4.319.5-4.326.5-4.336.5-4.344.5-4.353.5-4.362.5-4.37.5-4.379.5-4.387.5-4.396.5-4.405.5-4.414.5-4.422.5-4.431.5-4.44.5-4.448.5-4.457.5-4.466.5-4.474.5-4.483.5-4.492.5-4.501.5-4.509.5-4.517.5-4.527.5-4.539.5-4.54.5-4.55.5-4.56.5-4.57.5-4.58.5-4.59.5-4.59.5-4.61.5-4.61.5-4.62.5-4.63.5-4.64.5-4.65.5-4.66.5-4.66.5-4.68.5-4.68.5-4.69.5-4.7.5-4.71.5-4.72.5-4.72.5-4.74.5-4.74.5-4.75.5-4.76.5-4.77.5-4.78.5-4.79.5-4.79.5-4.81.5-4.81.5-4.82.5-4.83.5-4.84.5-4.85.5-4.86.5-4.86.5-4.87.5-4.89.5-4.89.5-4.9.5-4.9.5-4.92.5-4.93.5-4.93.5-4.94.5-4.96.5-4.96.5-4.97.5-4.97.5-4.99.5-4.99.5-5.01.5-5.01.5-5.02.5-5.03.5-5.04.5-5.05.5-5.05.5-5.07.5-5.07.5-5.08.5-5.09.5-5.1.5-5.11.5-5.12.5-5.12.5-5.14.5-5.14.5-5.15.5-5.16.5-5.17.5-5.18.5-5.18.5-5.2.5-5.2.5-5.21.5-5.22.5-5.23.5-5.24.5-5.25.5-5.25.5-5.27.5-5.27.5-5.28.5-5.29.5-5.3.5-5.31.5-5.31.5-5.33.5-5.33.5-5.34.5-5.35.5-5.36.5-5.37.5-5.38.5-5.38.5-5.4.5-5.4.5-5.41.5-5.42.5-5.43.5-5.44.5-5.44.5-5.46.5-5.46.5-5.48.5-5.48.5-5.49.5-5.49.5-5.51.5-5.52.5-5.52.5-5.53.5-5.55.5-5.55.5-5.56.5-5.56.5-5.58.5-5.59.5-5.59.5-5.6.5-5.61.5-5.62.5-5.63.5-5.64.5-5.64.5-5.66.5-5.66.5-5.67.5-5.68.5-5.69.5-5.7.5-5.71.5-5.71.5-5.73.5-5.73.5-5.74.5-5.75.5-5.76.5-5.77.5-5.77.5-5.79.5-5.79.5-5.8.5-5.81.5-5.82.5-5.83.5-5.84.5-5.84.5-5.86.5-5.86.5-5.87.5-5.88.5-5.89.5-5.9.5-5.91.5-5.91.5-5.92.5-5.94.5-5.94.5-5.95.5-5.96.5-5.96.5-5.98.5-5.98.5-6 .5-6 .5-6.01.5-6.02.5-6.02.5-6.04.5-6.05.5-6.05.5-6.06.5-6.07.5-6.08.5-6.09.5-6.1.5-6.1.5-6.12.5-6.12.5-6.13.5-6.14.5-6.15.5-6.16.5-6.17.5-6.17.5-6.19.5-6.19.5-6.2.5-6.21.5-6.22.5-6.23.5-6.23.5-6.25.5-6.25.5-6.26.5-6.27.5-6.28.5-6.29.5-6.3.5-6.3.5-6.32.5-6.32.5-6.33.5-6.34.5-6.35.5-6.36.5-6.36.5-6.38.5-6.38.5-6.39.5-6.4.5-6.41.5-6.42.5-6.43.5-6.43.5-6.45.5-6.45.5-6.46.5-6.47.5-6.48.5-6.49.5-6.5.5-6.5.5-6.52.5-6.52.5-6.53.5-6.54.5-6.55.5-6.55.5-6.57.5-6.57.5-6.59.5-6.59.5-6.6.5-6.61.5-6.62.5-6.62.5-6.64.5-6.64.5-6.65.5-6.67.5-6.67.5-6.67.5-6.69.5-6.7.5-6.7.5-6.71.5-6.73.5-6.73.5-6.74.5-6.74.5-6.76.5-6.77.5-6.77.5-6.78.5-6.79.5-6.8.5-6.81.5-6.82.5-6.83.5-6.83.5-6.85.5-6.85.5-6.86.5-6.87.5-6.88.5-6.88.5-6.9.5-6.9.5-6.91.5-6.93.5-6.93.5-6.94.5-6.94.5-6.96.5-6.96.5-6.98.5-6.98.5-6.99.5-7 .5-7.01.5-7.02.5-7.02.5-7.04.5-7.04.5-7.05.5-7.06.5-7.07.5-7.08.5-7.08.5-7.1.5-7.1.5-7.12.5-7.12.5-7.13.5-7.13.5-7.15.5-7.16.5-7.16.5-7.18.5-7.18.5-7.19.5-7.2.5-7.21.5-7.21.5-7.23.5-7.23.5-7.24.5-7.25.5-7.26.5-7.27.5-7.28.5-7.29.5-7.29.5-7.3" stroke-width="3" clip-path="url(#a)"/><path fill="none" stroke="#1fab54" d="M21.053 178.846l.5-.183.5-.182.5-.183.5-.183.5-.182.5-.183.5-.183.5-.182.5-.183.5-.183.5-.182.5-.183.5-.183.5-.183.5-.182.5-.183.5-.183.5-.182.5-.183.5-.183.5-.182.5-.183.5-.183.5-.182.5-.183.5-.183.5-.183.5-.182.5-.183.5-.183.5-.182.5-.183.5-.183.5-.182.5-.183.5-.183.5-.182.5-.183.5-.183.5-.183.5-.182.5-.183.5-.183.5-.182.5-.183.5-.183.5-.182.5-.183.5-.183.5-.182.5-.183.5-.183.5-.183.5-.182.5-.183.5-.183.5-.182.5-.183.5-.183.5-.182.5-.183.5-.183.5-.182.5-.183.5-.183.5-.183.5-.182.5-.183.5-.183.5-.182.5-.183.5-.183.5-.182.5-.183.5-.183.5-.182.5-.183.5-.183.5-.183.5-.182.5-.183.5-.183.5-.182.5-.183.5-.183.5-.182.5-.183.5-.183.5-.182.5-.183.5-.183.5-.183.5-.182.5-.183.5-.183.5-.182.5-.183.5-.183.5-.182.5-.183.5-.183.5-.182.5-.183.5-.183.5-.183.5-.182.5-.183.5-.183.5-.182.5-.183.5-.183.5-.182.5-.183.5-.183.5-.182.5-.183.5-.183.5-.183.5-.182.5-.183.5-.183.5-.182.5-.183.5-.183.5-.182.5-.183.5-.183.5-.182.5-.183.5-.183.5-.183.5-.182.5-.183.5-.183.5-.182.5-.183.5-.183.5-.182.5-.183.5-.183.5-.182.5-.183.5-.183.5-.183.5-.182.5-.183.5-.183.5-.182.5-.183.5-.183.5-.182.5-.183.5-.183.5-.182.5-.183.5-.183.5-.183.5-.182.5-.183.5-.183.5-.182.5-.183.5-.183.5-.182.5-.183.5-.183.5-.182.5-.183.5-.183.5-.183.5-.182.5-.183.5-.183.5-.182.5-.183.5-.183.5-.182.5-.183.5-.183.5-.182.5-.183.5-.183.5-.183.5-.182.5-.183.5-.183.5-.182.5-.183.5-.183.5-.182.5-.183.5-.183.5-.182.5-.183.5-.183.5-.183.5-.182.5-.183.5-.183.5-.182.5-.183.5-.183.5-.182.5-.183.5-.183.5-.182.5-.183.5-.183.5-.183.5-.182.5-.183.5-.183.5-.182.5-.183.5-.183.5-.182.5-.183.5-.183.5-.182.5-.183.5-.183.5-.183.5-.182.5-.183.5-.183.5-.182.5-.183.5-.183.5-.182.5-.183.5-.183.5-.182.5-.183.5-.183.5-.183.5-.182.5-.183.5-.183.5-.182.5-.183.5-.183.5-.182.5-.183.5-.183.5-.182.5-.183.5-.183.5-.183.5-.182.5-.183.5-.183.5-.182.5-.183.5-.183.5-.182.5-.183.5-.183.5-.182.5-.183.5-.183.5-.183.5-.182.5-.183.5-.183.5-.182.5-.183.5-.183.5-.182.5-.183.5-.183.5-.182.5-.183.5-.183.5-.183.5-.182.5-.183.5-.183.5-.182.5-.183.5-.183.5-.182.5-.183.5-.183.5-.182.5-.183.5-.183.5-.183.5-.182.5-.183.5-.183.5-.182.5-.183.5-.183.5-.182.5-.183.5-.183.5-.182.5-.183.5-.183.5-.183.5-.182.5-.183.5-.183.5-.182.5-.183.5-.183.5-.182.5-.183.5-.183.5-.182.5-.183.5-.183.5-.183.5-.182.5-.183.5-.183.5-.182.5-.183.5-.183.5-.182.5-.183.5-.183.5-.182.5-.183.5-.183.5-.183.5-.182.5-.183.5-.183.5-.182.5-.183.5-.183.5-.182.5-.183.5-.183.5-.182.5-.183.5-.183.5-.183.5-.182.5-.183.5-.183.5-.182.5-.183.5-.183.5-.182.5-.183.5-.183.5-.182.5-.183.5-.183.5-.183.5-.182.5-.183.5-.183.5-.182.5-.183.5-.183.5-.182.5-.183.5-.183.5-.182.5-.183.5-.183.5-.183.5-.182.5-.183.5-.183.5-.182.5-.183.5-.183.5-.182.5-.183.5-.183.5-.182.5-.183.5-.183.5-.183.5-.182.5-.183.5-.183.5-.182.5-.183.5-.183.5-.182.5-.183.5-.183.5-.182.5-.183.5-.183.5-.183.5-.182.5-.183.5-.183.5-.182.5-.183.5-.183.5-.182.5-.183.5-.183.5-.182.5-.183.5-.183.5-.183.5-.182.5-.183.5-.183.5-.182.5-.183.5-.183.5-.182.5-.183.5-.183.5-.182.5-.183.5-.183.5-.183.5-.182.5-.183.5-.183.5-.182.5-.183.5-.183.5-.182.5-.183.5-.183.5-.182.5-.183.5-.183.5-.183.5-.182.5-.183.5-.183.5-.182.5-.183.5-.183.5-.182.5-.183.5-.183.5-.183.5-.182.5-.183.5-.183.5-.182.5-.183.5-.183.5-.182.5-.183.5-.183.5-.182.5-.183.5-.183.5-.183.5-.182.5-.183.5-.183.5-.182.5-.183.5-.183.5-.182.5-.183.5-.183.5-.182.5-.183.5-.183.5-.183.5-.182.5-.183.5-.183.5-.182.5-.183.5-.183.5-.182.5-.183.5-.183.5-.182.5-.183.5-.183.5-.183.5-.182.5-.183.5-.183.5-.182.5-.183.5-.183.5-.182.5-.183.5-.183.5-.182.5-.183.5-.183.5-.183.5-.182.5-.183.5-.183.5-.182.5-.183.5-.183.5-.182.5-.183.5-.183.5-.182.5-.183.5-.183.5-.183.5-.182.5-.183.5-.183.5-.182.5-.183.5-.183.5-.182.5-.183.5-.183.5-.182.5-.183.5-.183.5-.183.5-.182.5-.183.5-.183.5-.182.5-.183.5-.183.5-.182.5-.183.5-.183.5-.182.5-.183.5-.183.5-.183.5-.182.5-.183.5-.183.5-.182.5-.183.5-.183.5-.182.5-.183.5-.183.5-.182.5-.183.5-.183.5-.183.5-.182.5-.183.5-.183.5-.182.5-.183.5-.183.5-.182.5-.183.5-.183.5-.182.5-.183.5-.183.5-.183.5-.182.5-.183.5-.183.5-.182.5-.183.5-.183.5-.182.5-.183.5-.183.5-.182.5-.183.5-.183.5-.183.5-.182.5-.183.5-.183.5-.182.5-.183.5-.183.5-.182.5-.183.5-.183.5-.182.5-.183.5-.183.5-.183.5-.182.5-.183.5-.183.5-.182.5-.183.5-.183.5-.182.5-.183.5-.183.5-.182.5-.183.5-.183.5-.183.5-.182.5-.183.5-.183.5-.182.5-.183.5-.183.5-.182.5-.183.5-.183.5-.182.5-.183.5-.183.5-.183.5-.182.5-.183.5-.183.5-.182.5-.183.5-.183.5-.182.5-.183.5-.183.5-.182.5-.183.5-.183.5-.183.5-.182.5-.183.5-.183.5-.182.5-.183.5-.183.5-.182.5-.183.5-.183.5-.182.5-.183.5-.183.5-.182.5-.183.5-.183.5-.182.5-.183.5-.183.5-.183.5-.182.5-.183.5-.183.5-.182.5-.183.5-.183.5-.182.5-.183.5-.183.5-.182.5-.183.5-.183.5-.183.5-.182.5-.183.5-.183.5-.182.5-.183.5-.183.5-.182.5-.183.5-.183.5-.182.5-.183.5-.183.5-.183.5-.182.5-.183.5-.183.5-.182.5-.183.5-.183.5-.182.5-.183.5-.183.5-.182.5-.183.5-.183.5-.183.5-.182.5-.183.5-.183.5-.182.5-.183.5-.183.5-.182.5-.183.5-.183.5-.182.5-.183.5-.183.5-.183.5-.182.5-.183.5-.183.5-.182.5-.183.5-.183.5-.182.5-.183.5-.183.5-.182.5-.183.5-.183.5-.183.5-.182.5-.183.5-.183.5-.182.5-.183.5-.183.5-.182.5-.183.5-.183.5-.182.5-.183.5-.183.5-.183.5-.182.5-.183.5-.183.5-.182.5-.183.5-.183.5-.182.5-.183.5-.183.5-.182.5-.183.5-.183.5-.183.5-.182.5-.183.5-.183.5-.182.5-.183.5-.183.5-.182.5-.183.5-.183.5-.182.5-.183.5-.183.5-.183.5-.182.5-.183.5-.183.5-.182.5-.183.5-.183.5-.182.5-.183.5-.183.5-.182.5-.183.5-.183.5-.183.5-.182.5-.183.5-.183.5-.182.5-.183.5-.183.5-.182.5-.183.5-.183.5-.182.5-.183.5-.183.5-.183.5-.182.5-.183.5-.183.5-.182.5-.183.5-.183.5-.182.5-.183.5-.183.5-.182.5-.183.5-.183.5-.183.5-.182.5-.183.5-.183.5-.182.5-.183.5-.183.5-.182.5-.183.5-.183.5-.182.5-.183.5-.183.5-.183.5-.182.5-.183.5-.183" stroke-width="3" clip-path="url(#a)"/></svg>
